<?xml version="1.0" encoding="UTF-8"?>
<svg xmlns="http://www.w3.org/2000/svg" viewBox="0 0 295.32 409.15">
  <defs>
    <style>
      .cls-1 {
        fill: #fdffff;
      }

      .cls-1, .cls-2, .cls-3, .cls-4, .cls-5, .cls-6, .cls-7, .cls-8, .cls-9 {
        stroke-width: 0px;
      }

      .cls-2 {
        fill: #ff8ba5;
      }

      .cls-3 {
        fill: #373030;
      }

      .cls-10 {
        isolation: isolate;
      }

      .cls-4 {
        fill: #348499;
      }

      .cls-5 {
        fill: #fff;
      }

      .cls-6 {
        fill: #feb0c1;
      }

      .cls-11 {
        mix-blend-mode: multiply;
        opacity: .5;
      }

      .cls-7 {
        fill: #ff7196;
      }

      .cls-8 {
        fill: #d6d6d6;
      }

      .cls-9 {
        fill: #5c6693;
      }
    </style>
  </defs>
  <g class="cls-10">
    <g id="Layer_2" data-name="Layer 2">
      <g id="OBJECTS">
        <g>
          <path class="cls-3" d="m42.94,39.94c-13.88,0-24.19-2.79-27.16-7.42-1.21-1.88-1.76-4.97,2.46-8.99.1-.1.26-.09.35,0,.1.1.09.26,0,.35-3.14,3-3.96,5.89-2.38,8.36,5.87,9.15,43.16,11.7,86-5.32,37.25-14.8,48.54-9.56,51.96-5.12,3.06,3.98,2.16,10.23-2.35,16.31-.08.11-.24.13-.35.05-.11-.08-.13-.24-.05-.35,3.43-4.62,5.85-11.17,2.36-15.71-3.33-4.33-14.43-9.41-51.38,5.27-19.36,7.7-39.64,12.14-57.1,12.53-.79.02-1.57.03-2.34.03Z"/>
          <path class="cls-3" d="m40.03,44.93c-16.24,0-26.55-3.82-28.59-11.36-.04-.13.04-.27.18-.31.14-.03.27.04.31.18,3.64,13.41,34.43,14.7,78.44,3.28.14-.03.27.05.31.18.03.13-.05.27-.18.31-19.93,5.17-37.17,7.73-50.45,7.73Z"/>
          <path class="cls-3" d="m253.99,102.96c-.1,0-.19-.06-.23-.16-.05-.13.01-.27.14-.33,24.69-9.98,36.49-22.95,34.14-37.53-2.3-14.2-18.29-29.43-43.87-41.77C218.47,10.78,185.56,2.51,153.89.5c-.14,0-.24-.13-.23-.27,0-.14.12-.24.27-.23,31.73,2.02,64.7,10.3,90.46,22.73,25.73,12.42,41.82,27.78,44.15,42.14,2.4,14.83-9.51,28-34.44,38.07-.03.01-.06.02-.09.02Z"/>
          <path class="cls-3" d="m266.41,102.96c-.09,0-.19-.05-.23-.15-.06-.13,0-.27.12-.33,18.61-8.46,28.47-20.1,28.51-33.65.05-17.32-16.19-36.02-41.37-47.64-.12-.06-.18-.21-.12-.33.06-.13.21-.18.33-.12,25.36,11.7,41.71,30.58,41.66,48.09-.04,13.76-10,25.56-28.8,34.11-.03.02-.07.02-.1.02Z"/>
          <g>
            <polygon class="cls-6" points="184.02 335 189.8 344.43 202.98 336.82 197.73 326.86 184.02 335"/>
            <polygon class="cls-6" points="75 362.24 89.54 360.88 89.46 376.58 76.44 377.39 75 362.24"/>
            <g>
              <path class="cls-4" d="m67.88,200.54s8.25,74.79,7.82,82.5c-.43,7.71-8.88,46.82-3.9,80.25,0,0,12.04,2.25,20.08-1.93,0,0,1.22-51.26,9.96-72.64,2.89-7.07,3.54-72.32,3.54-72.32l4.5-2.41s36,40.98,37.61,47.09c1.61,6.11-.32,30.54,34.07,76.82l18.32-9.96s-23.37-54.55-28.93-76.18c-2.89-11.25-39.05-61.04-39.05-61.04,0,0-22.41-6.33-36.03,0-13.63,6.33-27.98,9.83-27.98,9.83Z"/>
              <g>
                <path class="cls-1" d="m95.09,223.2c-.13,0-.25-.06-.32-.18-.11-.18-.05-.41.12-.52l23.68-14.68c.18-.11.41-.05.52.12.11.18.05.41-.12.52l-23.68,14.68c-.06.04-.13.06-.2.06Z"/>
                <path class="cls-1" d="m106,216.44c-.15,0-.29-.09-.35-.24l-7.13-18.16c-.08-.19.02-.41.21-.49.19-.07.41.02.49.21l7.13,18.16c.08.19-.02.41-.21.49-.04.02-.09.03-.14.03Z"/>
                <path class="cls-1" d="m109.35,214.36c-.16,0-.31-.1-.36-.26l-5.86-18.45c-.06-.2.05-.41.24-.47.2-.07.41.05.47.24l5.86,18.45c.06.2-.05.41-.24.47-.04.01-.08.02-.11.02Z"/>
              </g>
              <path class="cls-1" d="m77.06,364.21c-.19,0-.35-.14-.37-.33-2.42-18.32.79-46.87,2.92-65.76.73-6.5,1.36-12.11,1.61-15.87.95-14.58-5.72-73.48-5.78-74.08-.02-.21.12-.39.33-.42.21-.02.39.12.41.33.07.59,6.74,59.56,5.79,74.21-.25,3.77-.88,9.39-1.61,15.9-2.12,18.85-5.33,47.34-2.92,65.58.03.21-.12.39-.32.42-.02,0-.03,0-.05,0Z"/>
              <path class="cls-1" d="m186.87,335.38c-.11,0-.21-.05-.29-.14-18.07-21.75-25.84-48.48-30.98-66.17-1.37-4.7-2.55-8.76-3.65-11.72-5.05-13.58-38.6-45.21-38.93-45.52-.15-.14-.16-.38-.02-.53.14-.15.38-.16.53-.02,1.39,1.3,34.01,32.06,39.12,45.81,1.11,2.99,2.3,7.06,3.67,11.78,5.12,17.63,12.87,44.27,30.84,65.9.13.16.11.4-.05.53-.07.06-.16.09-.24.09Z"/>
              <path class="cls-1" d="m72.22,359.66c-1.36,0-2.18-.02-2.21-.02-.21,0-.37-.18-.37-.38,0-.21.19-.36.38-.37.14,0,13.89.3,23.06-1.6.21-.04.4.09.44.29.04.2-.09.4-.29.44-7.04,1.46-16.72,1.63-21.02,1.63Z"/>
              <path class="cls-1" d="m176.47,333.88c-.14,0-.27-.08-.34-.21-.09-.19-.01-.41.18-.5,5.08-2.43,22.11-10.74,22.28-10.82.19-.09.41-.01.5.17.09.19.01.41-.17.5-.17.08-17.2,8.39-22.29,10.82-.05.02-.11.04-.16.04Z"/>
              <g class="cls-11">
                <path class="cls-9" d="m131.89,190.71s-9.23,14.41-14.16,20.21c7.81,8.31,30.59,33.32,34.57,46.3,4.39,14.31,21.69,62.09,41.68,73.92l-12.43,6.76c-34.39-46.29-32.46-70.71-34.07-76.82-1.61-6.11-37.61-47.09-37.61-47.09l-.46.25-.06-.25s1.19-.83,2.49-1.93c-3.59-2.11-8.35-6.16-8.35-6.16,0,0-9.37,12.86-12.79,12.86s-9.01-1.71-9.01-1.71c0,0,6.33,52.71,5.05,61.39-1.16,7.85,3,18.32,13.28,15.5-7.1,23.48-8.14,67.43-8.14,67.43-8.04,4.18-20.08,1.93-20.08,1.93-4.97-33.43,3.47-72.54,3.9-80.25s-7.82-82.5-7.82-82.5c0,0,14.36-3.49,27.98-9.83,13.63-6.33,36.03,0,36.03,0Z"/>
              </g>
            </g>
            <g>
              <g>
                <path class="cls-6" d="m93,32.7s6.01,38.31,2.73,50.46c-2.25,8.36-8.2,11.73-10.61,11.73s-16.88-5.79-19.29-12.05c-16.08-1.61-24.68-26.64-7.71-19.04,0,0-3.05-27.72,4.82-32.87,7.88-5.14,24.11-5.46,30.05,1.77Z"/>
                <path class="cls-3" d="m65.68,34.95s17.2-.16,22.98-1.12c5.79-.96,8.52-8.52,8.84-10.45.16-.96-4.5,0-4.5,0,0,0-1.61-7.07-2.09-8.36-.48-1.29-6.43,5.62-12.21,6.27-5.79.64-26.04,7.55-26.36,9.48-.32,1.93,1.12,7.88,1.12,7.88,0,0-3.7,5.46-3.54,7.88s6.92,16.75,6.92,16.75l1.27.53s5.14,11.81,7.71,19.04c0,0,.64,2.41,3.13,4.82,2.49,2.41,13.18,8.12,15.91,8.12,4.18,0,11.41-6.99,11.23-14.41l-1.67,1.31c-.59,1.1-.7,2.79-1.81,3.88-2.3,2.28-6.1,3.67-7.83,3.67-2.57,0-8.03-2.01-9.4-3.38-.8-.8-.48-2.41-1.21-2.89-.72-.48-2.49-.72-2.49-.72,0,0-8.12-20.81-8.68-25.47s2.57-9.08,2.49-10.04c-.08-.96.16-12.78.16-12.78Z"/>
                <path class="cls-3" d="m61.34,77.38c-.11,0-.23-.05-.3-.15l-8.68-11.68c-.12-.17-.09-.4.08-.52.17-.12.4-.09.52.08l8.68,11.68c.12.17.09.4-.08.52-.07.05-.15.07-.22.07Z"/>
                <path class="cls-3" d="m53.73,73.73c-.15,0-.29-.09-.35-.23-.08-.19.01-.41.21-.49l3.76-1.53c.19-.08.41.01.49.21.08.19-.01.41-.21.49l-3.76,1.53s-.09.03-.14.03Z"/>
                <path class="cls-3" d="m88.45,71.54c-.12,0-.23-.05-.31-.16-.12-.17-.08-.4.09-.52,2.05-1.47,3.79-3.07,3.81-3.5-.01-.51-2.01-2.88-3.86-4.77l-.09-.09-1.2-8.16c-.03-.2.11-.39.32-.43.2-.03.4.11.43.32l1.16,7.92c1.04,1.07,3.99,4.2,3.99,5.21s-2.88,3.22-4.12,4.11c-.07.05-.14.07-.22.07Z"/>
                <g>
                  <path class="cls-3" d="m80.25,47.19s-2.67-6.69-4.38-6.72c-1.71-.03-4.73,6.77-4.63,7.2s3.76-.79,5.05-.77c1.29.02,4.51,1.57,3.96.28Z"/>
                  <path class="cls-3" d="m88.87,46.92s1.57-6.88,3.02-7.05c1.45-.17,4.71,6.34,4.67,6.78-.04.44-3.27-.47-4.36-.34-1.09.13-3.66,1.94-3.33.61Z"/>
                </g>
                <path class="cls-3" d="m79.77,58.17c0,1.58-.65,2.85-1.45,2.85s-1.45-1.28-1.45-2.85.65-2.85,1.45-2.85,1.45,1.28,1.45,2.85Z"/>
                <path class="cls-3" d="m92.73,58.68c0,1.58-.65,2.85-1.45,2.85s-1.45-1.28-1.45-2.85.65-2.85,1.45-2.85,1.45,1.28,1.45,2.85Z"/>
                <path class="cls-3" d="m93.85,76.38s-11.65-4.12-17-7.94c-1.66-1.19-.78,13.75,4.91,16.65,5.69,2.9,11.54-3.4,12.1-8.7Z"/>
                <path class="cls-7" d="m77.04,77.45c.87,3.27,2.39,6.45,4.71,7.64,1.61.82,3.23.89,4.74.47-2.25-4.76-7.51-7.3-9.45-8.1Z"/>
                <path class="cls-5" d="m93.23,78.83c.31-.82.53-1.64.61-2.45,0,0-11.65-4.12-17-7.94-.47-.34-.74.63-.75,2.25,3.06,3.12,10.15,9.35,17.14,8.14Z"/>
                <g>
                  <path class="cls-3" d="m51.44,36.15c-.99-1.13-1.66-1.66-2.23-1.48-.26.1-.45.41-.42.95.03.53.31,1.27.96,2.02,1.34,1.47,2.57,1.44,2.83.97.3-.5-.11-1.33-1.14-2.46Z"/>
                  <path class="cls-3" d="m49.79,39.11c-2.08.37-1.82,1.85.27,1.48,2.08-.37,1.82-1.85-.27-1.48Z"/>
                </g>
              </g>
              <path class="cls-5" d="m55.34,112.58c.25-1.9,1.41-3.55,3.15-4.35,6.23-2.9,21.1-6.59,37.67-4.22,2.25.32,15.48,8.25,29.3,13.07,0,0,3.7-3.21,7.07-1.12,0,0,9.96,14.3,8.68,23.79,0,0-4.18,6.3-7.55,2.41,0,0-6.11-1.77-7.55-6.59l-19.93-8.52c5.62,26.84,14.91,43.85,25.71,63.67-3.87,4.62-7.98,9.54-12.21,14.59l-18.64-11.25-11.25,19.93s-11.27-2.41-19.18-6.95c-1.68-.96-2.73-.85-4.04-.61l-7.31-43.39-8.52-.8c-1.54-15.57,2.46-33.06,4.61-49.66Z"/>
              <path class="cls-8" d="m65.22,135.39s-4.55,17.15-4.43,22.5c.03,1.55-.28,5.32-.74,9.89l6.51,38.65c1.5-.17,2.29-.39,4.04.61,7.9,4.47,19.18,6.95,19.18,6.95,0,0-14.17-24.8-24.56-78.59Z"/>
              <path class="cls-3" d="m70.61,207.28c-.12,0-.22-.08-.24-.2-5.04-23.69-5.46-50.89-5.46-51.16,0-.14.11-.25.25-.25h0c.14,0,.25.11.25.25,0,.27.43,27.43,5.45,51.06.03.14-.06.27-.19.3-.02,0-.04,0-.05,0Z"/>
              <path class="cls-3" d="m70.76,104.59s7.8,8.46,14.21,9.59c0,0,4.12-4.94,4.01-10.84-6.73-.31-12.98.27-18.22,1.25Z"/>
              <path class="cls-3" d="m74.12,115.69l-.13-.19c-3.21-4.7-4.47-10.6-4.49-10.66-.03-.14.06-.27.19-.3.14-.03.27.06.3.19.01.06,1.23,5.71,4.28,10.3.94-.49,4.85-2.36,7.32-1.07.12.06.17.21.11.34-.06.12-.22.17-.34.11-2.53-1.31-7,1.15-7.05,1.18l-.2.11Z"/>
              <path class="cls-3" d="m87.05,113.57c-.08,0-.15-.04-.2-.1-.08-.11-.06-.27.05-.35.17-.13,4.08-2.96,7.21-2.59-.69-1.44-3-6.03-4.73-7.07-.12-.07-.16-.22-.09-.34.07-.12.22-.16.34-.09,2.18,1.31,5.02,7.46,5.13,7.72l.21.47-.5-.12c-2.96-.72-7.25,2.39-7.29,2.42-.04.03-.1.05-.15.05Z"/>
              <path class="cls-5" d="m61.9,153.88s-3.78-2.09-6.99-.64-6.19,10.04-6.75,15.59c-.56,5.54.8,11.57,4.74,13.34,3.94,1.77,10.04,3.05,14.87-2.57,0,0,3.52-23.62-5.87-25.71Z"/>
              <path class="cls-3" d="m48.04,167.06s-.01,0-.02,0c-.14-.01-.24-.13-.23-.27.6-7.06,3.14-12.34,6.8-14.14,1.99-.98,4.19-.82,6.18.47.12.07.15.23.07.35-.07.12-.23.15-.35.07-1.86-1.2-3.83-1.35-5.68-.44-3.5,1.72-5.94,6.86-6.52,13.74-.01.13-.12.23-.25.23Z"/>
              <path class="cls-3" d="m66.01,148.51h0c-.14,0-.25-.12-.25-.25.49-24.37-9.48-38.01-9.58-38.15-.08-.11-.06-.27.05-.35.11-.08.27-.06.35.05.1.14,10.17,13.92,9.68,38.46,0,.14-.11.25-.25.25Z"/>
              <path class="cls-3" d="m56.92,183.69s-.09-.01-.14-.04c-10.58-6.95-2.75-25.67-2.67-25.86.05-.13.2-.19.33-.13.13.05.19.2.13.33-.08.18-7.74,18.52,2.49,25.24.12.08.15.23.07.35-.05.07-.13.11-.21.11Z"/>
              <path class="cls-8" d="m106.67,129.33c-.17-.76-.33-1.52-.5-2.29l19.93,8.52c1.45,4.82,7.55,6.59,7.55,6.59,3.37,3.89,7.55-2.41,7.55-2.41.35-2.61-.15-5.59-1.06-8.53-3.77-3.61-7.34-6.23-6.5-2.16,1.69,8.12-3.55,5.42-3.55,5.42-2.51.6-4.88-1.09-4.88-1.09-12.6-5.63-24.39-18.02-24.39-18.02,1.35,2.89,5.37,13.54,5.37,13.54l.46.43Z"/>
              <path class="cls-3" d="m131.89,190.96c-.08,0-.16-.04-.21-.11-11.49-17.18-19.53-40.59-24.26-57.21-3.46-12.15-9.29-23.34-9.34-23.45-.06-.12-.02-.27.11-.34.12-.06.27-.02.34.11.06.11,5.91,11.35,9.38,23.55,4.72,16.58,12.74,39.94,24.19,57.07.08.11.05.27-.07.35-.04.03-.09.04-.14.04Z"/>
              <path class="cls-3" d="m133.66,142.4s-.02,0-.03,0c-.21-.03-5.13-.7-6.94-4.07-1.73-3.23-1.94-5.83-2.32-10.54l-.04-.49c-.4-4.96.88-10.23.89-10.28.03-.13.17-.21.3-.18.13.03.22.17.18.3-.01.05-1.27,5.24-.88,10.13l.04.49c.37,4.65.58,7.2,2.26,10.34,1.69,3.14,6.51,3.8,6.56,3.81.14.02.23.14.22.28-.02.13-.12.22-.25.22Z"/>
              <path class="cls-3" d="m135.47,143.58s-.07,0-.1-.02c-4.6-2-6.91-10.37-6.86-24.88,0-.14.11-.25.25-.25h0c.14,0,.25.11.25.25-.04,14.29,2.17,22.51,6.56,24.42.13.05.18.2.13.33-.04.09-.13.15-.23.15Z"/>
              <path class="cls-6" d="m131.08,115.36s-.53,17.89,10.13,24.38c2.73,1.66,8.84-9.16,8.41-56.41,0,0,3.86-13.82,2.46-18.86-1.39-5.04-9.64-9.75-12.96-6.96-3.32,2.79-6.74,10.18-6.74,12.64s4,10.18,4,12.86-2.58,18.7-5.31,32.36Z"/>
              <path class="cls-3" d="m101.04,194.31c-.11,0-.21-.07-.24-.18-8.85-29.3-16-79.41-16.07-79.91-.02-.14.08-.26.21-.28.14-.02.26.08.28.21.07.5,7.22,50.57,16.05,79.84.04.13-.03.27-.17.31-.02,0-.05.01-.07.01Z"/>
              <path class="cls-6" d="m59.41,154.36c-1.51,1.25-2.85,2.98-3.57,4.8-1.47,3.71-1.95,9.36-.53,12.87,2.17,5.38,7.87,8.09,12.53,6.98,4.66-1.11,12.67-22.62,19.85-32.27,0,0,12.75-7.39,13.71-9.86s1.18-8.57.43-10.07-7.61-3.21-11.68-6.75c0,0,.06-2.14-1.18-2.41-1.23-.27-9.43,1.18-10.53,3.86s-2.33,15.96-2.33,15.96c0,0-9.77,11.16-16.71,16.88Z"/>
              <g>
                <path class="cls-3" d="m98.3,135.32c-.07,0-.15-.03-.2-.1-2.67-3.4-6.42-5.1-11.82-5.37-.14,0-.24-.12-.24-.26,0-.14.13-.25.26-.24,5.55.28,9.42,2.04,12.18,5.56.08.11.07.27-.04.35-.05.04-.1.05-.15.05Z"/>
                <path class="cls-3" d="m84.05,129.64s-.02,0-.02,0c-.14-.01-.24-.13-.23-.27,0-.04.35-3.92.64-5.69.03-.2.05-.41.07-.63.15-1.61.34-3.61,5.66-3.22.14.01.24.13.23.27-.01.14-.14.24-.27.23-4.82-.36-4.98,1.23-5.12,2.77-.02.23-.04.46-.08.67-.29,1.75-.64,5.61-.64,5.65-.01.13-.12.23-.25.23Z"/>
                <path class="cls-3" d="m90.16,130.36s-.02,0-.03,0c-.14-.02-.23-.14-.21-.28.58-4.24,0-9.12,0-9.17-.02-.14.08-.26.22-.28.13-.02.26.08.28.22,0,.05.59,4.99,0,9.29-.02.13-.12.22-.25.22Z"/>
                <path class="cls-3" d="m94.83,132.2s-.05,0-.07-.01c-.13-.04-.21-.18-.17-.31.95-3.09.4-8.54.4-8.59-.01-.14.09-.26.22-.27.12-.02.26.09.27.22.02.23.56,5.6-.41,8.79-.03.11-.13.18-.24.18Z"/>
                <path class="cls-3" d="m98.03,134.99s-.05,0-.08-.01c-.13-.04-.2-.19-.16-.32.01-.04,1.48-4.44,1.11-8.3-.01-.14.09-.26.23-.27.13,0,.26.09.27.23.38,3.97-1.08,8.32-1.14,8.51-.04.1-.13.17-.24.17Z"/>
              </g>
              <polygon class="cls-3" points="135.43 73.52 149.17 74.08 149.65 42.02 136.22 40.31 135.43 40.84 135.43 73.52"/>
              <polygon class="cls-5" points="136.22 40.31 136.22 73.55 135.43 73.52 135.43 40.84 136.22 40.31"/>
              <path class="cls-5" d="m146.22,47.79c-.95,0-1.72-.77-1.72-1.72s.77-1.72,1.72-1.72,1.72.77,1.72,1.72-.77,1.72-1.72,1.72Zm0-2.95c-.67,0-1.22.55-1.22,1.22s.55,1.22,1.22,1.22,1.22-.55,1.22-1.22-.55-1.22-1.22-1.22Z"/>
              <path class="cls-6" d="m152.09,64.47c.15-3.73-2.97-8.71-4.39-10.31-1.42-1.61-7.85-4.02-8.81-3.21-.96.8,1.21,4.42,1.21,4.42,0,0-2.65.24-.24,4.34,0,0-3.37.8.8,6.43,0,0-2.62,2.09,1.08,5.62,3.93,3.75,6.63,6.27,6.63,6.27,0,0,3.29-2.95,3.72-13.55Z"/>
              <g>
                <path class="cls-3" d="m147.43,60.91c-.08,0-.16-.04-.21-.11-2.38-3.68-7.16-5.19-7.2-5.2-.13-.04-.21-.18-.17-.31.04-.13.18-.21.31-.16.2.06,4.99,1.57,7.48,5.41.07.12.04.27-.07.35-.04.03-.09.04-.14.04Z"/>
                <path class="cls-3" d="m147.05,65.9c-.08,0-.15-.04-.2-.1-3.44-4.8-7.03-5.84-7.07-5.85-.13-.04-.21-.17-.17-.31.04-.13.17-.21.31-.17.15.04,3.8,1.1,7.34,6.04.08.11.05.27-.06.35-.04.03-.09.05-.15.05Z"/>
                <path class="cls-3" d="m146.36,71.09c-.07,0-.13-.03-.18-.08-3.3-3.51-5.61-4.65-5.63-4.66-.12-.06-.18-.21-.12-.33.06-.12.21-.18.33-.12.1.05,2.41,1.19,5.78,4.77.09.1.09.26-.01.35-.05.05-.11.07-.17.07Z"/>
                <path class="cls-3" d="m143.76,80.2c-.12,0-.23-.09-.25-.22-.28-2.07,1.52-5.17,1.6-5.3.07-.12.22-.16.34-.09.12.07.16.22.09.34-.02.03-1.79,3.08-1.54,4.98.02.14-.08.26-.21.28-.01,0-.02,0-.03,0Z"/>
              </g>
              <path class="cls-2" d="m141.21,139.73c2.45,1.49,7.59-7.05,8.34-42.73-5.04,24.21-14.99,24.21-18.47,19.16.05,3.55.82,17.91,10.13,23.57Z"/>
              <path class="cls-2" d="m88.98,130.54c-3.62-.3-5.57,7.21-7.5,11.6-1.73,3.95-15.32,27-20.85,26.05-4.55-.78-3.24-9.42-2.63-12.46-.91,1.02-1.67,2.2-2.15,3.43-1.47,3.71-1.95,9.36-.53,12.87,2.17,5.38,7.87,8.09,12.53,6.98,4.66-1.11,12.67-22.62,19.85-32.27,0,0,7.75-4.49,11.62-7.64.04-.53.01-1-.1-1.36-1.55-4.93-6.62-6.9-10.24-7.21Z"/>
              <path class="cls-3" d="m49.92,156.17h0c-.14,0-.25-.12-.24-.26.58-18.49,5.38-43.14,5.42-43.38.03-.14.16-.23.29-.2.14.03.22.16.2.29-.05.25-4.84,24.85-5.41,43.3,0,.14-.12.24-.25.24Z"/>
              <path class="cls-3" d="m123.49,116.61s-.05,0-.08-.01c-4.66-1.55-25.28-11.58-25.49-11.68-.12-.06-.18-.21-.12-.33.06-.12.21-.17.33-.12.21.1,20.8,10.11,25.43,11.66.13.04.2.19.16.32-.04.1-.13.17-.24.17Z"/>
            </g>
            <path class="cls-4" d="m75,375.42s8.96-4.57,15.35-.4c0,0,7.42,21.05,8.38,24.7.96,3.64,1.07,6.96.64,7.61-.43.64-24.5,3.58-29.36,0-2.04-1.5,4.98-31.9,4.98-31.9Z"/>
            <path class="cls-4" d="m188.95,344.43l14.04-7.61s31.62-4.88,37.5-6.43c2.04-.54,5.68,5.79,4.5,8.46s-39.96,24.43-44.04,25.71-12-20.14-12-20.14Z"/>
            <g>
              <path class="cls-5" d="m99.37,407.32c.4-.59.33-3.47-.44-6.77-13.85,3.52-26.73,1.19-28.95.74-.42,3.27-.5,5.64.03,6.03,4.86,3.58,28.93.64,29.36,0Z"/>
              <path class="cls-5" d="m87.71,373.8c-2.64-.8-5.43-.58-7.73-.08.51,3.91,1.94,12.6,4.65,12.6s3.06-8.58,3.08-12.52Z"/>
            </g>
            <g>
              <path class="cls-5" d="m244.98,338.86c.56-1.28.02-3.38-.91-5.18-11.98,9.45-40.23,23.78-47.36,27.34,1.54,2.38,3.05,3.93,4.24,3.55,4.07-1.29,42.86-23.04,44.04-25.71Z"/>
              <path class="cls-5" d="m200.83,337.99c6.12.24,18.71.12,23.07-4.52-10.14,1.69-20.92,3.36-20.92,3.36l-2.15,1.17Z"/>
            </g>
            <path class="cls-3" d="m80.41,409.15c-8.62,0-10.45-1.54-10.56-1.64-.1-.09-.11-.25-.02-.35.09-.1.25-.11.35-.02.06.05,4.3,3.39,29.16-.06.11-.01.18-.07.25-.16.59-.9-.36-4.36-.77-5.84l-.12-.45c-.04-.13.04-.27.18-.31.14-.04.27.04.31.18l.12.45c.69,2.5,1.36,5.25.7,6.25-.14.22-.35.35-.6.39-8.52,1.18-14.63,1.58-19,1.58Z"/>
            <path class="cls-3" d="m200.96,364.82s-.02,0-.04,0c-2.13-.22-4.33-3.53-4.42-3.67-.08-.12-.04-.27.07-.35.11-.07.27-.05.35.07.02.03,2.16,3.24,4.05,3.44,0,0,.02,0,.03,0,2.5,0,42.72-23.5,43.76-25.58.89-1.79-.52-4.35-.53-4.37-.07-.12-.02-.27.1-.34.12-.07.27-.02.34.1.06.11,1.55,2.82.54,4.84-1.08,2.16-41.66,25.85-44.25,25.85Z"/>
          </g>
          <path class="cls-3" d="m198.96,248.84c-34.47,0-66.11-3.57-93.86-10.69-44.7-11.47-78.29-31.92-94.58-57.59-14.26-22.47-14.02-46.66.65-68.12.08-.11.23-.14.35-.07.11.08.14.23.07.35-14.56,21.29-14.79,45.29-.64,67.57,16.22,25.56,49.7,45.94,94.28,57.38,51.81,13.29,117.24,14.18,189.22,2.58.13-.03.26.07.29.21.02.14-.07.26-.21.29-33.5,5.4-65.6,8.1-95.56,8.1Z"/>
          <path class="cls-3" d="m218.52,259.5c-109.43,0-170.6-18.31-211.15-63.18-.09-.1-.08-.26.02-.35.1-.09.26-.09.35.02,40.44,44.76,101.51,63.02,210.78,63.02.14,0,.25.11.25.25s-.11.25-.25.25Z"/>
        </g>
      </g>
    </g>
  </g>
</svg>